<mxfile host="app.diagrams.net" modified="2023-07-09T16:34:41.198Z" agent="Mozilla/5.0 (Windows NT 10.0; Win64; x64) AppleWebKit/537.36 (KHTML, like Gecko) Chrome/114.0.0.0 Safari/537.36" version="21.5.0" etag="2yO9kpc2SIoqsQalV_-h" type="github">
  <diagram name="第 1 页" id="BuDtsLv1tk2fQ_eDWFJz">
    <mxGraphModel>
      <root>
        <mxCell id="0" />
        <mxCell id="1" parent="0" />
      </root>
    </mxGraphModel>
  </diagram>
</mxfile>
